<?xml version="1.0" encoding="UTF-8"?>
<svg version="1.1" xmlns="http://www.w3.org/2000/svg" width="500" height="500">
<path d="M0 0 C6.39507463 3.75478448 11.21689701 9.70538682 15.99609375 15.265625 C20.20603882 20.09732051 24.74716398 24.5692862 29.3125 29.0625 C38.40987328 38.0161549 38.40987328 38.0161549 42.28125 42.53125 C46.52438046 47.47417665 51.17433726 51.99356357 55.8125 56.5625 C61.06257916 61.73421976 66.18321772 66.9128921 70.98046875 72.5078125 C74.72939207 76.7123619 78.8009459 80.61081984 82.8125 84.5625 C88.06257916 89.73421976 93.18321772 94.9128921 97.98046875 100.5078125 C101.72939207 104.7123619 105.8009459 108.61081984 109.8125 112.5625 C115.06257916 117.73421976 120.18321772 122.9128921 124.98046875 128.5078125 C128.72939207 132.7123619 132.8009459 136.61081984 136.8125 140.5625 C142.06257916 145.73421976 147.18321772 150.9128921 151.98046875 156.5078125 C155.72939207 160.7123619 159.8009459 164.61081984 163.8125 168.5625 C169.06257916 173.73421976 174.18321772 178.9128921 178.98046875 184.5078125 C182.72939207 188.7123619 186.8009459 192.61081984 190.8125 196.5625 C196.13321099 201.8037974 201.32614158 207.05360147 206.18603516 212.7265625 C209.29881816 216.2402413 212.74868532 219.43119411 216.18164062 222.62890625 C220.95653432 227.25050372 224.21530694 232.04959964 225.34375 238.6875 C225.2445303 247.81571265 223.42601741 253.07358346 217.0625 259.625 C215.12856928 261.481736 213.1520411 263.27189736 211.11523438 265.01513672 C205.39523979 269.92599639 200.10125072 275.1936167 194.8125 280.5625 C189.63070006 285.82281206 184.44189118 290.95500747 178.8359375 295.76171875 C174.81436948 299.34075901 171.08733014 303.22707869 167.3125 307.0625 C158.35841103 316.16031432 158.35841103 316.16031432 153.875 320 C148.74319899 324.40526487 144.0577971 329.24912116 139.3125 334.0625 C133.97851368 339.4730141 128.65205219 344.77422831 122.88085938 349.71679688 C118.49783919 353.62799052 114.43504675 357.88080624 110.3125 362.0625 C104.9684249 367.48324763 99.63184589 372.79602025 93.84960938 377.74804688 C89.64942794 381.48914807 85.75821106 385.55700544 81.8125 389.5625 C76.64078024 394.81257916 71.4621079 399.93321772 65.8671875 404.73046875 C61.6626381 408.47939207 57.76418016 412.5509459 53.8125 416.5625 C44.32711008 426.19160795 44.32711008 426.19160795 39.84375 430.03125 C34.72067206 434.42392928 30.04735253 439.25971559 25.3125 444.0625 C19.87860678 449.57435439 14.45085203 454.98268617 8.56835938 460.01611328 C5.98919893 462.2875819 3.67595624 464.75484514 1.3125 467.25 C-4.84800337 473.4909913 -9.28980922 476.67273883 -18.1875 477.0625 C-27.58772238 476.67328126 -32.41974001 472.79828918 -38.81640625 466.171875 C-40.11732452 464.74022194 -41.41135004 463.30174675 -42.67138672 461.83398438 C-47.57279163 456.12500236 -52.82886579 450.8411546 -58.1875 445.5625 C-63.43757916 440.39078024 -68.55821772 435.2121079 -73.35546875 429.6171875 C-77.10439207 425.4126381 -81.1759459 421.51418016 -85.1875 417.5625 C-90.43757916 412.39078024 -95.55821772 407.2121079 -100.35546875 401.6171875 C-104.10439207 397.4126381 -108.1759459 393.51418016 -112.1875 389.5625 C-117.44781206 384.38070006 -122.58000747 379.19189118 -127.38671875 373.5859375 C-130.96575901 369.56436948 -134.85207869 365.83733014 -138.6875 362.0625 C-147.78487328 353.1088451 -147.78487328 353.1088451 -151.65625 348.59375 C-155.89938046 343.65082335 -160.54933726 339.13143643 -165.1875 334.5625 C-170.43757916 329.39078024 -175.55821772 324.2121079 -180.35546875 318.6171875 C-184.10439207 314.4126381 -188.1759459 310.51418016 -192.1875 306.5625 C-197.43757916 301.39078024 -202.55821772 296.2121079 -207.35546875 290.6171875 C-211.10439207 286.4126381 -215.1759459 282.51418016 -219.1875 278.5625 C-224.49653089 273.33270837 -229.67639424 268.09456052 -234.52539062 262.43408203 C-237.88132508 258.65520519 -241.6045201 255.21890203 -245.2890625 251.76367188 C-250.03379295 247.15879702 -252.66016824 243.24432082 -253.62109375 236.53515625 C-253.63344193 227.335761 -251.84611726 222.09784808 -245.4375 215.5 C-243.50948714 213.64894563 -241.53991641 211.86359065 -239.5078125 210.12744141 C-233.60053412 205.06171103 -228.14869365 199.6020465 -222.6875 194.0625 C-217.3434249 188.64175237 -212.00684589 183.32897975 -206.22460938 178.37695312 C-202.02442794 174.63585193 -198.13321106 170.56799456 -194.1875 166.5625 C-189.01578024 161.31242084 -183.8371079 156.19178228 -178.2421875 151.39453125 C-174.0376381 147.64560793 -170.13918016 143.5740541 -166.1875 139.5625 C-161.01578024 134.31242084 -155.8371079 129.19178228 -150.2421875 124.39453125 C-146.0376381 120.64560793 -142.13918016 116.5740541 -138.1875 112.5625 C-128.70211008 102.93339205 -128.70211008 102.93339205 -124.21875 99.09375 C-119.09567206 94.70107072 -114.42235253 89.86528441 -109.6875 85.0625 C-104.3434249 79.64175237 -99.00684589 74.32897975 -93.22460938 69.37695312 C-89.02442794 65.63585193 -85.13321106 61.56799456 -81.1875 57.5625 C-71.70211008 47.93339205 -71.70211008 47.93339205 -67.21875 44.09375 C-62.09567206 39.70107072 -57.42235253 34.86528441 -52.6875 30.0625 C-47.25503631 24.55209565 -41.82879618 19.14525269 -35.94775391 14.11328125 C-32.39546666 10.98372112 -29.23617297 7.46272265 -25.99609375 4.015625 C-18.88184734 -2.19820914 -8.75936118 -3.81908147 0 0 Z " fill="#41DAFE" transform="translate(264.1875,12.4375)"/>
<path d="M0 0 C0.495 1.485 0.495 1.485 1 3 C-0.33804688 3.81404297 -0.33804688 3.81404297 -1.703125 4.64453125 C-2.88548104 5.36708217 -4.06776913 6.0897443 -5.25 6.8125 C-5.83652344 7.16892578 -6.42304688 7.52535156 -7.02734375 7.89257812 C-9.53375873 9.42740528 -11.96355298 10.97204488 -14.296875 12.76171875 C-16 14 -16 14 -18 14 C-18.495 12.515 -18.495 12.515 -19 11 C-32.2 11 -45.4 11 -59 11 C-59 27.83 -59 44.66 -59 62 C-48.81522123 61.67355471 -48.81522123 61.67355471 -38.63061523 61.34179688 C-29.41567006 61.05452451 -20.21957926 60.93926162 -11 61 C-11.60111152 64.62866686 -11.91751743 64.9370171 -15.08984375 67.359375 C-16.36465833 68.16857052 -17.64760398 68.96506823 -18.9375 69.75 C-19.58396484 70.16121094 -20.23042969 70.57242188 -20.89648438 70.99609375 C-25.7017364 74 -25.7017364 74 -28 74 C-28 73.34 -28 72.68 -28 72 C-38.23 72 -48.46 72 -59 72 C-58.979375 76.66125 -58.95875 81.3225 -58.9375 86.125 C-58.93491229 95.93812883 -58.94373458 105.75347548 -59.25 115.5625 C-59.26409912 116.43986816 -59.27819824 117.31723633 -59.29272461 118.22119141 C-59.50480088 123.57228305 -60.42799638 126.76965264 -64 131 C-65.485 131.99 -65.485 131.99 -67 133 C-49.51 133 -32.02 133 -14 133 C-13.79032341 121.13879034 -13.79032341 121.13879034 -13.61206055 109.27709961 C-13.57973997 107.77715629 -13.54636196 106.27723522 -13.51171875 104.77734375 C-13.50235291 103.63271667 -13.50235291 103.63271667 -13.49279785 102.46496582 C-13.33995255 96.7133508 -12.39056849 91.6464931 -8.39453125 87.22265625 C-6.9296875 86.1484375 -5.46484375 85.07421875 -4 84 C-3.8769751 84.5369751 -3.7539502 85.0739502 -3.62719727 85.62719727 C-1.34252571 94.33901772 2.88786339 102.02445122 7.0625 109.9375 C7.83153195 111.40994246 8.59983848 112.88276401 9.36743164 114.35595703 C11.23392363 117.93359166 13.11002986 121.50607216 14.98937988 125.07696533 C16.42407867 127.8069481 17.84883212 130.54208326 19.2734375 133.27734375 C23.35996425 141.29978428 23.35996425 141.29978428 28 149 C43.1394503 126.16496195 43.1394503 126.16496195 55.5625 101.8125 C59.1457345 93.68029552 63.20013132 88.6381362 71 84 C71.33 84 71.66 84 72 84 C74.19701765 129.024254 74.19701765 129.024254 74.1875 147.1875 C74.18814453 148.36530029 74.18878906 149.54310059 74.18945312 150.7565918 C74.13726208 158.58821376 74.13726208 158.58821376 73 162 C75.97 162 78.94 162 82 162 C77.29974869 166.1127199 72.04697426 168.08981888 65.85058594 168.03442383 C63.9445459 168.01738403 63.9445459 168.01738403 62 168 C62.00523682 167.00484375 62.01047363 166.0096875 62.01586914 164.984375 C62.10878093 145.62657763 62.07099145 126.33522066 61 107 C59.91337771 108.83138588 58.83088425 110.66522169 57.75 112.5 C57.14671875 113.5209375 56.5434375 114.541875 55.921875 115.59375 C54.57106558 117.9878675 53.34434931 120.33064545 52.16015625 122.80078125 C49.74335058 127.69876273 46.7200492 132.15441153 43.6875 136.6875 C39.87278302 142.4456334 36.2602889 148.15619241 33.125 154.3125 C30.47508734 159.46621484 27.4427855 163.2864255 23 167 C20.75856561 164.75856561 20.23642078 163.26336526 19.125 160.3125 C12.30406457 143.55191234 2.88046565 127.73728537 -6 112 C-6.03963867 112.62640381 -6.07927734 113.25280762 -6.12011719 113.89819336 C-7.18509 130.1154935 -9.17200313 145.99732482 -12 162 C-9.36 162 -6.72 162 -4 162 C-7.03196864 165.49842535 -9.49925243 166.91982058 -14 168 C-15.99978483 168.0293367 -18.00027927 168.03342152 -20 168 C-19.81824219 167.06317383 -19.81824219 167.06317383 -19.6328125 166.10742188 C-19.08091719 163.23968896 -18.5403924 160.3699218 -18 157.5 C-17.71382812 156.02660156 -17.71382812 156.02660156 -17.421875 154.5234375 C-16.37400593 148.90985321 -15.78248918 143.7096591 -16 138 C-16.67047363 138.28077393 -17.34094727 138.56154785 -18.03173828 138.85083008 C-27.02292516 142.26452773 -35.41572822 142.62334556 -44.875 142.6875 C-46.42361883 142.71199952 -47.97220536 142.73862906 -49.52075195 142.76733398 C-51.8354312 142.80994995 -54.15003818 142.85129794 -56.46485901 142.88545227 C-63.04571919 142.98335054 -69.61398578 143.23588303 -76.1875 143.5625 C-77.10063965 143.60656982 -78.0137793 143.65063965 -78.95458984 143.69604492 C-80.9698679 143.79451193 -82.98496281 143.8967211 -85 144 C-84.57847656 143.16855469 -84.15695313 142.33710938 -83.72265625 141.48046875 C-83.17480469 140.39378906 -82.62695312 139.30710937 -82.0625 138.1875 C-81.51722656 137.10855469 -80.97195312 136.02960938 -80.41015625 134.91796875 C-78.46432868 130.89156101 -77.86429606 127.94453511 -77.79467773 123.51879883 C-77.77473251 122.39786331 -77.75478729 121.2769278 -77.73423767 120.12202454 C-77.70916893 118.30785286 -77.70916893 118.30785286 -77.68359375 116.45703125 C-77.66281265 115.21829758 -77.64203156 113.9795639 -77.62062073 112.70329285 C-77.56628203 109.41374744 -77.51604049 106.12417274 -77.46777344 102.83453369 C-77.41749354 99.47622186 -77.36184139 96.11799954 -77.30664062 92.75976562 C-77.19946952 86.17324841 -77.09769865 79.58666416 -77 73 C-80.3 73 -83.6 73 -87 73 C-87 72.34 -87 71.68 -87 71 C-85.71086513 70.32845067 -84.41859796 69.66291141 -83.125 69 C-82.40570313 68.62875 -81.68640625 68.2575 -80.9453125 67.875 C-79 67 -79 67 -77 67 C-77 48.85 -77 30.7 -77 12 C-81.95 12 -86.9 12 -92 12 C-92 11.34 -92 10.68 -92 10 C-79.14998111 1.822081 -68.18592135 0.8706043 -53.1875 1.0625 C-51.20507551 1.06298728 -49.22264652 1.05974743 -47.24023438 1.05273438 C-44.31269309 1.04267867 -41.38548392 1.03507516 -38.45793152 1.04298401 C-30.61434368 1.05431873 -22.82076505 0.71029589 -14.99414062 0.22265625 C-9.99626579 -0.08202081 -5.00523385 -0.10122945 0 0 Z " fill="#F8FCFD" transform="translate(263,138)"/>
<path d="M0 0 C0.495 1.485 0.495 1.485 1 3 C0.34 3.33 -0.32 3.66 -1 4 C1.97 4.33 4.94 4.66 8 5 C8 5.99 8 6.98 8 8 C6.62304688 9.25854492 6.62304688 9.25854492 4.71875 10.48046875 C4.04199219 10.92197266 3.36523438 11.36347656 2.66796875 11.81835938 C1.95253906 12.27017578 1.23710937 12.72199219 0.5 13.1875 C-0.21542969 13.65091797 -0.93085938 14.11433594 -1.66796875 14.59179688 C-3.43928122 15.7372456 -5.21889127 16.86984411 -7 18 C-7.99 17.34 -8.98 16.68 -10 16 C-13.20254015 15.72271471 -13.20254015 15.72271471 -16.85546875 15.8046875 C-18.06614014 15.80968262 -19.27681152 15.81467773 -20.52416992 15.81982422 C-22.06306885 15.83803223 -23.60196777 15.85624023 -25.1875 15.875 C-30.075625 15.91625 -34.96375 15.9575 -40 16 C-40 33.16 -40 50.32 -40 68 C-47.26 68 -54.52 68 -62 68 C-60.35 65.36 -58.7 62.72 -57 60 C-56.23261965 57.0790074 -56.23261965 57.0790074 -56.2487793 54.2265625 C-56.20911545 53.16606689 -56.1694516 52.10557129 -56.12858582 51.01293945 C-56.11064468 49.89491943 -56.09270355 48.77689941 -56.07421875 47.625 C-56.0369014 46.4599292 -55.99958405 45.2948584 -55.96113586 44.09448242 C-55.84775549 40.39656662 -55.76715494 36.69878054 -55.6875 33 C-55.61609949 30.48301051 -55.54255472 27.96608086 -55.46679688 25.44921875 C-55.28636959 19.29995483 -55.1327994 13.15046699 -55 7 C-50.90682137 6.83245853 -46.81343505 6.67189176 -42.71972656 6.51782227 C-41.32674778 6.46440851 -39.93384107 6.40907957 -38.54101562 6.35180664 C-36.54056398 6.26987931 -34.5398125 6.19537902 -32.5390625 6.12109375 C-30.73236084 6.05039673 -30.73236084 6.05039673 -28.88916016 5.97827148 C-26 6 -26 6 -24 7 C-24 7.66 -24 8.32 -24 9 C-23.10539062 8.3503125 -22.21078125 7.700625 -21.2890625 7.03125 C-8.87592843 -1.65656729 -8.87592843 -1.65656729 0 0 Z " fill="#45AEC9" transform="translate(259,203)"/>
<path d="M0 0 C0 0.99 0 1.98 0 3 C-0.33 3.33 -0.66 3.66 -1 4 C1.97 4.33 4.94 4.66 8 5 C7 9 7 9 5.41772461 10.37207031 C4.75264893 10.77006836 4.08757324 11.16806641 3.40234375 11.578125 C2.68369141 12.01640625 1.96503906 12.4546875 1.22460938 12.90625 C0.09249023 13.57140625 0.09249023 13.57140625 -1.0625 14.25 C-1.82111328 14.70890625 -2.57972656 15.1678125 -3.36132812 15.640625 C-5.2345411 16.77162151 -7.11388193 17.89070522 -9 19 C-9.66 18.34 -10.32 17.68 -11 17 C-12.85536424 16.67110612 -12.85536424 16.67110612 -14.99072266 16.68115234 C-15.82289307 16.66109131 -16.65506348 16.64103027 -17.51245117 16.62036133 C-18.38748291 16.60900146 -19.26251465 16.5976416 -20.1640625 16.5859375 C-20.96803467 16.56829346 -21.77200684 16.55064941 -22.6003418 16.5324707 C-25.60835641 16.4693259 -28.61670869 16.42319296 -31.625 16.375 C-41.710625 16.189375 -41.710625 16.189375 -52 16 C-52 29.86 -52 43.72 -52 58 C-56.95 58 -61.9 58 -67 58 C-67 41.17 -67 24.34 -67 7 C-53.8 6.67 -40.6 6.34 -27 6 C-26.505 7.98 -26.505 7.98 -26 10 C-25.04480469 9.278125 -24.08960938 8.55625 -23.10546875 7.8125 C-15.51112294 2.28736967 -9.81276394 -1.8360681 0 0 Z " fill="#44A6C7" transform="translate(271,142)"/>
<path d="M0 0 C0.33 0 0.66 0 1 0 C3.05257209 16.93554157 -0.30943383 26.27624291 -10.40576172 39.75488281 C-12.68300703 42.96185798 -14.44463775 46.32687451 -16.125 49.875 C-16.62257813 50.92429687 -17.12015625 51.97359375 -17.6328125 53.0546875 C-18.56440993 55.06161453 -19.49401739 57.06946621 -20.421875 59.078125 C-22.04474479 62.08284431 -23.82781211 64.3574177 -26.125 66.875 C-27.18074219 68.04675781 -27.18074219 68.04675781 -28.2578125 69.2421875 C-29.12019531 70.11230469 -29.12019531 70.11230469 -30 71 C-30.33 71 -30.66 71 -31 71 C-31.99 68.03 -31.99 68.03 -33 65 C-33.99 65.495 -33.99 65.495 -35 66 C-35.72079292 63.06534309 -36.21009869 60.96764405 -36 58 C-34.75568519 56.02242824 -33.29443135 54.5427796 -31.66015625 52.875 C-29.88508386 50.87021236 -28.92453446 49.05424133 -27.8125 46.625 C-23.7573794 38.01118174 -18.16773934 30.11709649 -12.81616211 22.26245117 C-10.78999824 19.2837738 -9.33482374 16.41815218 -7.98828125 13.078125 C-5.7991996 8.47499678 -2.93430648 4.16069611 0 0 Z " fill="#2E9EB5" transform="translate(324,244)"/>
<path d="M0 0 C0.33 1.98 0.66 3.96 1 6 C1.99 5.67 2.98 5.34 4 5 C4.66710783 27.67279522 5.176182 50.31588927 5 73 C2.03 73 -0.94 73 -4 73 C-3.99476318 72.14994385 -3.98952637 71.2998877 -3.98413086 70.42407227 C-3.74921695 51.66797012 -3.74921695 51.66797012 -4.5 32.9375 C-4.96263983 26.33127535 -5.17732573 19.74744291 -5.25 13.125 C-5.27126953 12.16585693 -5.29253906 11.20671387 -5.31445312 10.21850586 C-5.31896484 9.32397705 -5.32347656 8.42944824 -5.328125 7.5078125 C-5.3374707 6.71004395 -5.34681641 5.91227539 -5.35644531 5.09033203 C-4.81146516 1.89435937 -3.33743185 0 0 0 Z " fill="#2D9AB2" transform="translate(340,226)"/>
<path d="M0 0 C0 0.99 0 1.98 0 3 C-5.17317421 4.06309567 -10.12369336 4.11693938 -15.375 4.0625 C-16.20644531 4.05798828 -17.03789062 4.05347656 -17.89453125 4.04882812 C-19.92971897 4.03713164 -21.96486923 4.01919935 -24 4 C-23.99333817 4.65510559 -23.98667633 5.31021118 -23.97981262 5.98516846 C-23.91348675 12.79816789 -23.8682107 19.61107574 -23.83520508 26.42431641 C-23.82011064 28.96764857 -23.79963312 31.51095467 -23.77368164 34.05419922 C-23.73732823 37.7080732 -23.72028003 41.36160329 -23.70703125 45.015625 C-23.69154739 46.15429016 -23.67606354 47.29295532 -23.66011047 48.46612549 C-23.65977058 50.05732208 -23.65977058 50.05732208 -23.65942383 51.68066406 C-23.65276199 52.61332092 -23.64610016 53.54597778 -23.63923645 54.50689697 C-24.07023243 57.48535023 -24.91256411 58.85612707 -27 61 C-29.69921875 61.390625 -29.69921875 61.390625 -32.6875 61.25 C-33.68136719 61.21390625 -34.67523438 61.1778125 -35.69921875 61.140625 C-36.45847656 61.09421875 -37.21773437 61.0478125 -38 61 C-37.64980301 60.56606934 -37.29960602 60.13213867 -36.938797 59.68505859 C-32.48254277 53.51629218 -32.1938355 48.07904064 -32.07421875 40.625 C-32.0369014 39.4599292 -31.99958405 38.2948584 -31.96113586 37.09448242 C-31.84775549 33.39656662 -31.76715494 29.69878054 -31.6875 26 C-31.61609949 23.48301051 -31.54255472 20.96608086 -31.46679688 18.44921875 C-31.28636959 12.29995483 -31.1327994 6.15046699 -31 0 C-27.66682397 -0.16991244 -24.33343885 -0.33533079 -21 -0.5 C-20.06542969 -0.54769531 -19.13085938 -0.59539062 -18.16796875 -0.64453125 C-2.7941879 -1.39709395 -2.7941879 -1.39709395 0 0 Z " fill="#4F8491" transform="translate(235,210)"/>
<path d="M0 0 C8.81550201 10.81565793 8.73763611 19.32338686 7.37890625 33.0703125 C7.11419495 35.42272229 6.84203501 37.77430562 6.5625 40.125 C6.42779297 41.32898438 6.29308594 42.53296875 6.15429688 43.7734375 C5.14355886 52.56932341 5.14355886 52.56932341 4 56 C4.99 56.33 5.98 56.66 7 57 C5.68 57.66 4.36 58.32 3 59 C3 59.66 3 60.32 3 61 C5.97 61 8.94 61 12 61 C5.90699742 66.07750215 2.84074663 67.26135822 -5 67 C-4.34 65.35 -3.68 63.7 -3 62 C-4.98 62 -6.96 62 -9 62 C-8.4375 59.6875 -8.4375 59.6875 -7 57 C-3.5 55.25 -3.5 55.25 0 54 C0.99 53.505 0.99 53.505 2 53 C-0.31 52.67 -2.62 52.34 -5 52 C-4.88249781 50.08285907 -4.75545257 48.16630327 -4.625 46.25 C-4.55539063 45.18265625 -4.48578125 44.1153125 -4.4140625 43.015625 C-4.13690812 39.78300484 -3.60070598 36.63091981 -3.03125 33.4375 C-1.851105 26.56710171 -1.33535035 19.70053565 -0.875 12.75 C-0.74544922 10.89955078 -0.74544922 10.89955078 -0.61328125 9.01171875 C-0.40372832 6.0081268 -0.19938783 3.00428088 0 0 Z " fill="#319DB3" transform="translate(256,248)"/>
<path d="M0 0 C0.02736707 1.39572052 0.04655989 2.79160221 0.0625 4.1875 C0.07410156 4.96480469 0.08570313 5.74210937 0.09765625 6.54296875 C-0.00486419 9.12238294 -0.46914924 11.47799967 -1 14 C-1.89493164 14.02505615 -2.78986328 14.0501123 -3.71191406 14.07592773 C-20.48426695 14.5506779 -37.24666899 15.04324841 -54 16 C-53.34 14.68 -52.68 13.36 -52 12 C-55.3 11.67 -58.6 11.34 -62 11 C-61.1875 8.5625 -61.1875 8.5625 -59 6 C-52.77606212 4.57954897 -46.04965212 4.92607275 -39.69140625 4.82421875 C-38.95270798 4.81209854 -38.2140097 4.79997833 -37.45292664 4.78749084 C-34.38681218 4.73959919 -31.3210975 4.69191372 -28.25463867 4.67407227 C-18.59602095 4.60730526 -8.87404134 0 0 0 Z " fill="#47B3C9" transform="translate(248,275)"/>
<path d="M0 0 C0.5625 1.9375 0.5625 1.9375 1 4 C0 5 0 5 -3.14282227 5.11352539 C-4.53402696 5.11327441 -5.92523791 5.10771709 -7.31640625 5.09765625 C-7.96411987 5.09664917 -8.6118335 5.09564209 -9.2791748 5.09460449 C-11.70696779 5.08935843 -14.13473561 5.07539725 -16.5625 5.0625 C-24.6990625 5.0315625 -24.6990625 5.0315625 -33 5 C-33 20.51 -33 36.02 -33 52 C-35.31 52 -37.62 52 -40 52 C-40 35.17 -40 18.34 -40 1 C-32.6059375 0.7525 -32.6059375 0.7525 -25.0625 0.5 C-23.52601807 0.44779297 -21.98953613 0.39558594 -20.40649414 0.34179688 C-13.60158742 0.11829261 -6.80946152 -0.0608667 0 0 Z " fill="#4F8191" transform="translate(244,148)"/>
<path d="M0 0 C4.16636339 1.75913121 6.24086879 3.83363661 8 8 C8.60011492 12.62276027 8.38597667 16.90975429 6 21 C3.85500693 23.33425716 2.242153 24.77369682 -0.9296875 25.3515625 C-6.46915966 25.58150285 -9.68285779 24.07743784 -13.8125 20.375 C-16.05828794 15.88342412 -15.4795294 10.9617112 -14.3125 6.1875 C-10.78075911 0.30126518 -6.49225396 -1.07984752 0 0 Z " fill="#F7FBFC" transform="translate(289,330)"/>
<path d="M0 0 C0.99 0.66 1.98 1.32 3 2 C3.34057617 4.33837891 3.34057617 4.33837891 3.29296875 7.2265625 C3.28330078 8.2578125 3.27363281 9.2890625 3.26367188 10.3515625 C3.23853516 11.43179687 3.21339844 12.51203125 3.1875 13.625 C3.16719727 15.25695312 3.16719727 15.25695312 3.14648438 16.921875 C3.11104754 19.61507409 3.06164331 22.30729374 3 25 C1.02 25 -0.96 25 -3 25 C-3 22.69 -3 20.38 -3 18 C-4.98 18 -6.96 18 -9 18 C-8.34 20.31 -7.68 22.62 -7 25 C-9.31 25 -11.62 25 -14 25 C-16.37340997 20.40151819 -16.56385953 16.05683548 -16 11 C-13.33621734 3.30462788 -8.29590598 -1.0956857 0 0 Z " fill="#EFFAFB" transform="translate(241,330)"/>
<path d="M0 0 C1.98 0 3.96 0 6 0 C7.98 3.63 9.96 7.26 12 11 C12.33 7.37 12.66 3.74 13 0 C15.31 0 17.62 0 20 0 C19.67 8.25 19.34 16.5 19 25 C17.02 25 15.04 25 13 25 C11.02 21.37 9.04 17.74 7 14 C7 17.63 7 21.26 7 25 C4.69 25 2.38 25 0 25 C0 16.75 0 8.5 0 0 Z " fill="#F5FCFD" transform="translate(299,330)"/>
<path d="M0 0 C12.21465709 -0.4935215 12.21465709 -0.4935215 15.859375 1.796875 C18 4 18 4 19.0625 7.5 C19 11 19 11 17.0625 13.4375 C16.381875 13.953125 15.70125 14.46875 15 15 C15.99 18.3 16.98 21.6 18 25 C15.69 25 13.38 25 11 25 C9.68 21.37 8.36 17.74 7 14 C7 17.63 7 21.26 7 25 C4.69 25 2.38 25 0 25 C0 16.75 0 8.5 0 0 Z " fill="#F8FCFD" transform="translate(183,330)"/>
<path d="M0 0 C0.33 0 0.66 0 1 0 C2.57502706 9.56593357 -1.75914339 15.3474069 -7.125 22.875 C-13.51969989 32.03606754 -19.44849345 41.15732335 -23.375 51.6875 C-25.74628185 56.52126685 -29.30371847 60.12812315 -33 64 C-35.0078125 60.296875 -35.0078125 60.296875 -34.9375 57.625 C-33.90851519 54.74384252 -32.37985867 53.02064619 -30.3671875 50.7578125 C-28.85768875 48.8170284 -27.91034249 46.91688712 -26.875 44.6875 C-22.76835732 36.06748645 -17.18864111 28.14362876 -11.81835938 20.2668457 C-9.76399475 17.24844522 -8.2884951 14.33149341 -6.921875 10.9453125 C-5.07392169 7.0458178 -2.60209676 3.43570261 0 0 Z " fill="#247586" transform="translate(323,246)"/>
<path d="M0 0 C0.87527344 -0.01417969 1.75054687 -0.02835937 2.65234375 -0.04296875 C5.0625 0.1875 5.0625 0.1875 8.0625 2.1875 C7.7325 3.8375 7.4025 5.4875 7.0625 7.1875 C6.0725 6.8575 5.0825 6.5275 4.0625 6.1875 C-0.64574122 5.73462692 -0.64574122 5.73462692 -4.875 7.4375 C-6.28348542 9.41614294 -6.28348542 9.41614294 -5.9375 13.1875 C-5.56625 12.5275 -5.195 11.8675 -4.8125 11.1875 C-2.9375 9.1875 -2.9375 9.1875 0.1875 8.875 C3.0625 9.1875 3.0625 9.1875 4.0625 10.1875 C4.10313832 11.85367115 4.105221 13.52138095 4.0625 15.1875 C1.0925 15.1875 -1.8775 15.1875 -4.9375 15.1875 C-4.9375 16.5075 -4.9375 17.8275 -4.9375 19.1875 C-3.50010487 19.21462066 -2.06256137 19.23395067 -0.625 19.25 C0.17550781 19.26160156 0.97601563 19.27320313 1.80078125 19.28515625 C4.23111334 19.28407855 4.23111334 19.28407855 7.0625 18.1875 C7.3925 19.8375 7.7225 21.4875 8.0625 23.1875 C4.0181813 25.88371247 0.80915346 25.73069098 -3.9375 25.1875 C-7.70551719 23.54923165 -9.76742737 21.64264357 -11.9375 18.1875 C-12.72864046 13.82304182 -12.97925261 9.178405 -10.8828125 5.171875 C-7.4808086 1.02505368 -5.17941786 0.03802803 0 0 Z " fill="#F7FCFD" transform="translate(215.9375,329.8125)"/>
<path d="M0 0 C3 1 3 1 5 2 C4.6875 3.9375 4.6875 3.9375 4 6 C0.30581799 7.231394 -2.2056261 6.64432764 -6 6 C-6 6.99 -6 7.98 -6 9 C-5.37351562 9.18175781 -4.74703125 9.36351562 -4.1015625 9.55078125 C-3.28429687 9.80214844 -2.46703125 10.05351562 -1.625 10.3125 C-0.81289063 10.55613281 -0.00078125 10.79976563 0.8359375 11.05078125 C3 12 3 12 5 15 C5.4375 17.9375 5.4375 17.9375 5 21 C2.8522479 23.63272839 1.22508937 24.80283372 -2.16015625 25.34765625 C-6.93259572 25.53090518 -10.11299272 25.00929596 -14 22 C-13.34 20.35 -12.68 18.7 -12 17 C-11.46375 17.33 -10.9275 17.66 -10.375 18 C-7.4608939 19.22699204 -5.13132292 19.14233286 -2 19 C-2 18.34 -2 17.68 -2 17 C-2.62648438 16.73445313 -3.25296875 16.46890625 -3.8984375 16.1953125 C-4.71570313 15.84210938 -5.53296875 15.48890625 -6.375 15.125 C-7.18710937 14.77695312 -7.99921875 14.42890625 -8.8359375 14.0703125 C-11 13 -11 13 -13 11 C-13.4375 7.625 -13.4375 7.625 -13 4 C-9.31834829 -0.48701302 -5.42960304 -0.76627462 0 0 Z " fill="#F7FBFC" transform="translate(334,330)"/>
<path d="M0 0 C0 2.31 0 4.62 0 7 C-4.47606065 9.22966698 -8.74212774 9.32711441 -13.640625 9.37890625 C-14.48107361 9.39590073 -15.32152222 9.4128952 -16.18743896 9.43040466 C-18.87488272 9.48334293 -21.56231935 9.52361461 -24.25 9.5625 C-27.7553051 9.62154555 -31.26047794 9.68615275 -34.765625 9.75390625 C-35.62071655 9.76982819 -36.47580811 9.78575012 -37.35681152 9.80215454 C-45.58626446 9.97437482 -53.78876183 10.44136219 -62 11 C-60.78735352 8.54956055 -60.78735352 8.54956055 -59 6 C-56.91381836 5.30395508 -56.91381836 5.30395508 -54.40234375 5.20703125 C-52.9325708 5.13669678 -52.9325708 5.13669678 -51.43310547 5.06494141 C-50.30018066 5.04351074 -49.16725586 5.02208008 -48 5 C-46.02797607 4.95431885 -46.02797607 4.95431885 -44.01611328 4.90771484 C-38.76288262 4.80162776 -33.50890045 4.70464292 -28.25463867 4.67407227 C-18.59602095 4.60730526 -8.87404134 0 0 0 Z " fill="#558C97" transform="translate(248,275)"/>
<path d="M0 0 C3 1.5 3 1.5 5 3 C4.34 4.32 3.68 5.64 3 7 C2.34 6.67 1.68 6.34 1 6 C-3.64281715 5.59119434 -3.64281715 5.59119434 -7.9375 7.0625 C-9.6140629 10.11976176 -9.36528977 12.5906288 -9 16 C-8.08333333 18.08333333 -8.08333333 18.08333333 -6 19 C-2.27013478 19.26641894 0.44646071 19.1845131 4 18 C4.33 19.65 4.66 21.3 5 23 C0.73755081 25.8416328 -2.99967088 25.50403317 -8 25 C-11.56986793 23.63281654 -12.68082803 22.473255 -14.8125 19.3125 C-16.20994727 15.41435763 -16.98812023 12.04584661 -16 8 C-11.85783435 1.41306991 -7.87138782 -0.90302728 0 0 Z " fill="#F4FBFC" transform="translate(177,330)"/>
<path d="M0 0 C0.66 0 1.32 0 2 0 C3.42527446 21.36964027 4.32274668 42.57706869 4 64 C2.35 64 0.7 64 -1 64 C-1.0231271 55.80309439 -1.04091696 47.60620232 -1.05181217 39.40927219 C-1.0570402 35.60348423 -1.06413638 31.79771852 -1.07543945 27.99194336 C-1.0862712 24.32207456 -1.09227744 20.65222722 -1.09487724 16.98234367 C-1.09673097 15.57925008 -1.1003506 14.17615771 -1.10573006 12.7730732 C-1.11294419 10.8143032 -1.11340809 8.8555118 -1.11352539 6.89672852 C-1.115746 5.77976089 -1.11796661 4.66279327 -1.12025452 3.51197815 C-1 1 -1 1 0 0 Z " fill="#184F5B" transform="translate(337,235)"/>
<path d="M0 0 C4.33854056 4.57050213 4.5093947 7.66185084 4.40185547 13.77685547 C3.55164292 40.56152344 3.55164292 40.56152344 -1 52 C-2.32 52 -3.64 52 -5 52 C-4.88249781 50.08285907 -4.75545257 48.16630327 -4.625 46.25 C-4.55539063 45.18265625 -4.48578125 44.1153125 -4.4140625 43.015625 C-4.13690812 39.78300484 -3.60070598 36.63091981 -3.03125 33.4375 C-1.851105 26.56710171 -1.33535035 19.70053565 -0.875 12.75 C-0.78863281 11.51636719 -0.70226562 10.28273438 -0.61328125 9.01171875 C-0.40372832 6.0081268 -0.19938783 3.00428088 0 0 Z " fill="#297584" transform="translate(256,248)"/>
<path d="M0 0 C1.4606285 2.64738916 2 3.89448334 2 7 C2.99 6.67 3.98 6.34 5 6 C5.22171875 6.59941406 5.4434375 7.19882813 5.671875 7.81640625 C8.56930306 15.19644945 12.07152732 22.17019452 15.75 29.1875 C16.26868652 30.17862793 16.78737305 31.16975586 17.32177734 32.19091797 C19.78109473 36.86506811 22.27315624 41.51539669 24.8515625 46.125 C25.49399902 47.28866089 25.49399902 47.28866089 26.14941406 48.47583008 C26.94734431 49.91576037 27.75859303 51.34841624 28.58496094 52.7722168 C29.6484375 54.69921875 29.6484375 54.69921875 31 58 C30.2265625 60.45703125 30.2265625 60.45703125 29 62 C26.93580913 59.36236997 25.2491428 56.75863312 23.73510742 53.77319336 C23.31424362 52.94810776 22.89337982 52.12302216 22.45976257 51.27293396 C22.01284561 50.38751419 21.56592865 49.50209442 21.10546875 48.58984375 C20.40071159 47.20582115 20.40071159 47.20582115 19.68171692 45.7938385 C18.18004717 42.84353828 16.6834829 39.8906873 15.1875 36.9375 C13.70435415 34.01537685 12.22009622 31.09383001 10.73391724 28.17324829 C9.78053477 26.29856767 8.82938769 24.42274838 7.88058472 22.54574585 C5.02106627 16.91087078 2.04315737 11.40558161 -1.27612305 6.02563477 C-2 4 -2 4 -1.13598633 1.72631836 C-0.76111084 1.1566333 -0.38623535 0.58694824 0 0 Z " fill="#235966" transform="translate(262,226)"/>
<path d="M0 0 C6.27 0 12.54 0 19 0 C19 1.98 19 3.96 19 6 C16.03 5.505 16.03 5.505 13 5 C13 11.6 13 18.2 13 25 C10.69 25 8.38 25 6 25 C6.33 18.4 6.66 11.8 7 5 C4.69 5.33 2.38 5.66 0 6 C0 4.02 0 2.04 0 0 Z " fill="#EFF7F8" transform="translate(245,330)"/>
<path d="M0 0 C0.99 0.66 1.98 1.32 3 2 C3 2.66 3 3.32 3 4 C3.99 3.67 4.98 3.34 6 3 C6.08071788 5.79224073 6.14035408 8.58216566 6.1875 11.375 C6.21263672 12.1690625 6.23777344 12.963125 6.26367188 13.78125 C6.29004405 15.85586148 6.15486462 17.93100865 6 20 C2.78169935 22.14553377 1.73213493 22.29583868 -2 22.3125 C-3.299375 22.33763672 -3.299375 22.33763672 -4.625 22.36328125 C-7.4116129 21.93703947 -8.26608617 21.16168863 -10 19 C-9.22914063 19.01160156 -8.45828125 19.02320313 -7.6640625 19.03515625 C-6.15972656 19.04869141 -6.15972656 19.04869141 -4.625 19.0625 C-3.12839844 19.07990234 -3.12839844 19.07990234 -1.6015625 19.09765625 C0.98432453 19.18006602 0.98432453 19.18006602 3 18 C2.67 16.68 2.34 15.36 2 14 C1.01 14.495 1.01 14.495 0 15 C-6.53333333 15.23333333 -6.53333333 15.23333333 -9 14 C-9 12.68 -9 11.36 -9 10 C-2.25 8.875 -2.25 8.875 0 10 C-0.33 8.35 -0.66 6.7 -1 5 C-3.83151973 4.58190799 -3.83151973 4.58190799 -7 5 C-9.40406384 7.37842577 -9.40406384 7.37842577 -11 10 C-11.31785906 6.50355037 -11.39644605 4.602598 -9.4375 1.625 C-6.12030578 -0.58646281 -3.91054241 -0.42660463 0 0 Z " fill="#47E0F5" transform="translate(220,335)"/>
<path d="M0 0 C-1.3125 1.5 -1.3125 1.5 -3 3 C-3.99 3 -4.98 3 -6 3 C-6 3.66 -6 4.32 -6 5 C-2.7 5 0.6 5 4 5 C-0.43883454 9.43883454 -6.23162554 11.61727447 -12.5 12.25390625 C-14.33528295 12.25062896 -16.16991877 12.13811934 -18 12 C-17.67 10.35 -17.34 8.7 -17 7 C-18.65 7 -20.3 7 -22 7 C-21.73828125 5.109375 -21.73828125 5.109375 -21 3 C-14.8332517 -0.925626 -6.99487808 -0.31956296 0 0 Z " fill="#2FA3B7" transform="translate(351,303)"/>
<path d="M0 0 C-0.37267567 2.49067718 -0.64806016 3.69481532 -2.58227539 5.37207031 C-3.24735107 5.77006836 -3.91242676 6.16806641 -4.59765625 6.578125 C-5.31630859 7.01640625 -6.03496094 7.4546875 -6.77539062 7.90625 C-7.90750977 8.57140625 -7.90750977 8.57140625 -9.0625 9.25 C-9.82111328 9.70890625 -10.57972656 10.1678125 -11.36132812 10.640625 C-13.2345411 11.77162151 -15.11388193 12.89070522 -17 14 C-17.66 13.34 -18.32 12.68 -19 12 C-20.93257855 11.63168919 -20.93257855 11.63168919 -23.1328125 11.5859375 C-23.93847656 11.54726562 -24.74414062 11.50859375 -25.57421875 11.46875 C-26.41597656 11.4378125 -27.25773438 11.406875 -28.125 11.375 C-28.97449219 11.33632812 -29.82398438 11.29765625 -30.69921875 11.2578125 C-32.79911684 11.16343506 -34.89952891 11.08062414 -37 11 C-37 10.67 -37 10.34 -37 10 C-35.67935547 9.97873047 -35.67935547 9.97873047 -34.33203125 9.95703125 C-27.24501645 9.88558715 -27.24501645 9.88558715 -21.1875 6.75 C-20.465625 5.8425 -19.74375 4.935 -19 4 C-12.85370391 -1.41561753 -7.86412022 -1.46006644 0 0 Z " fill="#42A9CE" transform="translate(279,147)"/>
<path d="M0 0 C0.33 0 0.66 0 1 0 C1 6.6 1 13.2 1 20 C0.01 19.01 -0.98 18.02 -2 17 C-2 16.01 -2 15.02 -2 14 C-2.99 14.66 -3.98 15.32 -5 16 C-11.33333333 16.33333333 -11.33333333 16.33333333 -14 15 C-14.48372093 7.74418605 -14.48372093 7.74418605 -12.375 4.5 C-9.31754465 2.56897557 -7.561827 2.55477163 -4 3 C-1.625 4 -1.625 4 0 5 C0 3.35 0 1.7 0 0 Z " fill="#4CE4FA" transform="translate(183,334)"/>
<path d="M0 0 C0 0.99 0 1.98 0 3 C-1.37695312 4.25854492 -1.37695312 4.25854492 -3.28125 5.48046875 C-3.95800781 5.92197266 -4.63476562 6.36347656 -5.33203125 6.81835938 C-6.04746094 7.27017578 -6.76289063 7.72199219 -7.5 8.1875 C-8.21542969 8.65091797 -8.93085938 9.11433594 -9.66796875 9.59179688 C-11.43928122 10.7372456 -13.21889127 11.86984411 -15 13 C-15.99 12.34 -16.98 11.68 -18 11 C-19.65549531 10.61500109 -21.3222433 10.27206865 -23 10 C-18.55449803 -0.07647113 -9.93114405 -2.04191747 0 0 Z " fill="#44AECC" transform="translate(267,208)"/>
<path d="M0 0 C2.31 0 4.62 0 7 0 C7 8.25 7 16.5 7 25 C4.69 25 2.38 25 0 25 C0 16.75 0 8.5 0 0 Z " fill="#F0F6F7" transform="translate(265,330)"/>
<path d="M0 0 C0 0.99 0 1.98 0 3 C-1.56054688 4.3503418 -1.56054688 4.3503418 -3.71875 5.69921875 C-4.48574219 6.18583984 -5.25273437 6.67246094 -6.04296875 7.17382812 C-6.85378906 7.67333984 -7.66460937 8.17285156 -8.5 8.6875 C-9.31082031 9.19861328 -10.12164062 9.70972656 -10.95703125 10.23632812 C-12.96557927 11.50053188 -14.97984026 12.75446659 -17 14 C-17.33 13.01 -17.66 12.02 -18 11 C-20.97 10.505 -20.97 10.505 -24 10 C-16.74202727 2.06159233 -10.92019179 -0.90332469 0 0 Z " fill="#4C93AD" transform="translate(271,142)"/>
<path d="M0 0 C2.98636722 0.44795508 3.67276949 1.02570363 5.5 3.375 C5.8984375 5.53125 5.8984375 5.53125 5.875 7.875 C5.88273437 8.6484375 5.89046875 9.421875 5.8984375 10.21875 C5.40611797 12.88306744 4.65511423 13.77002031 2.5 15.375 C-0.5625 15.75 -0.5625 15.75 -3.5 15.375 C-5.56520632 12.27719052 -5.79477024 11.4209519 -5.8125 7.875 C-5.82925781 7.1015625 -5.84601563 6.328125 -5.86328125 5.53125 C-5.25195226 1.90271666 -3.56550801 0.5348262 0 0 Z " fill="#45E5FC" transform="translate(285.5,334.625)"/>
<path d="M0 0 C0.33 0.99 0.66 1.98 1 3 C-1.26827645 4.48321908 -3.53941903 5.96167699 -5.8125 7.4375 C-6.77639648 8.06881836 -6.77639648 8.06881836 -7.75976562 8.71289062 C-10.48390104 10.47722704 -12.90752171 11.9691739 -16 13 C-16 12.34 -16 11.68 -16 11 C-18.31 10.67 -20.62 10.34 -23 10 C-16.12728456 2.48296748 -10.39004919 -0.9580988 0 0 Z " fill="#4B96AC" transform="translate(259,203)"/>
<path d="M0 0 C1.4606285 2.64738916 2 3.89448334 2 7 C2.99 6.67 3.98 6.34 5 6 C5.22171875 6.59941406 5.4434375 7.19882813 5.671875 7.81640625 C10.89744169 21.12645473 17.99961192 33.64969102 24.81640625 46.1953125 C25.24018555 46.98010986 25.66396484 47.76490723 26.10058594 48.57348633 C26.89202876 50.03567854 27.69056436 51.49405997 28.49707031 52.94799805 C29.39173576 54.60072456 30.20525304 56.2969708 31 58 C30.505 58.99 30.505 58.99 30 60 C26.15777874 54.07456363 22.91106746 48.02880673 19.8125 41.6875 C14.98486355 31.91282146 9.98043229 22.24454372 4.85693359 12.62207031 C4.22315982 11.42241421 3.60676914 10.21353829 3 9 C2.01 9.495 2.01 9.495 1 10 C-0.625 7.25 -0.625 7.25 -2 4 C-1.1875 1.625 -1.1875 1.625 0 0 Z " fill="#2F9BB3" transform="translate(262,226)"/>
<path d="M0 0 C0.33 0 0.66 0 1 0 C1 5.61 1 11.22 1 17 C0.01 16.67 -0.98 16.34 -2 16 C-2.24492187 16.67933594 -2.48984375 17.35867188 -2.7421875 18.05859375 C-4.24822258 21.58047082 -6.1387704 24.79805791 -8.125 28.0625 C-8.5180835 28.71355713 -8.91116699 29.36461426 -9.31616211 30.03540039 C-13.03286482 36.14454903 -16.96506002 42.09601426 -21 48 C-21.33 47.34 -21.66 46.68 -22 46 C-19.33861717 39.49562453 -15.45546084 33.57254318 -11.4140625 27.85546875 C-10.46575562 26.49965698 -10.46575562 26.49965698 -9.49829102 25.11645508 C-8.22983816 23.32008012 -6.93924108 21.53909334 -5.62475586 19.77612305 C-1.5953649 14.06033922 -0.32432074 10.15559782 -0.86694336 3.13916016 C-0.91085205 2.4332373 -0.95476074 1.72731445 -1 1 C-0.67 0.67 -0.34 0.34 0 0 Z " fill="#4BCCE8" transform="translate(324,244)"/>
<path d="M0 0 C-3.98994352 4.62621358 -10.54153287 6.64874943 -16.5 7.25390625 C-18.33528295 7.25062896 -20.16991877 7.13811934 -22 7 C-21.73828125 5.109375 -21.73828125 5.109375 -21 3 C-14.8332517 -0.925626 -6.99487808 -0.31956296 0 0 Z " fill="#20626E" transform="translate(351,303)"/>
<path d="M0 0 C0.77734375 2.6640625 0.77734375 2.6640625 1 6 C-0.87109375 8.7734375 -0.87109375 8.7734375 -3.4375 11.375 C-4.28183594 12.24898438 -5.12617188 13.12296875 -5.99609375 14.0234375 C-6.65738281 14.67570312 -7.31867188 15.32796875 -8 16 C-10.0078125 12.296875 -10.0078125 12.296875 -9.9375 9.625 C-8.36826859 5.23115204 -5.13788857 0 0 0 Z " fill="#19525C" transform="translate(298,294)"/>
<path d="M0 0 C3.51919758 3.36618899 4.18591613 5.37318982 4.3125 10.25 C4.27098453 15.52246532 3.56659034 18.12770191 0 22 C-2.80157448 22.93385816 -4.65447803 23.16354595 -7.5625 23.1875 C-8.74005859 23.20876953 -8.74005859 23.20876953 -9.94140625 23.23046875 C-12 23 -12 23 -14 21 C-13.40832031 20.97421875 -12.81664062 20.9484375 -12.20703125 20.921875 C-6.999945 20.54812003 -3.68759993 20.03331243 0 16 C2.08230424 11.51503702 1.53739834 4.61219502 0 0 Z " fill="#32838E" transform="translate(295,334)"/>
<path d="M0 0 C0.66 0.33 1.32 0.66 2 1 C2 2.98 2 4.96 2 7 C-0.97 6.505 -0.97 6.505 -4 6 C-4 12.6 -4 19.2 -4 26 C-5.98 26 -7.96 26 -10 26 C-10.33 25.34 -10.66 24.68 -11 24 C-9.35 24 -7.7 24 -6 24 C-6 17.4 -6 10.8 -6 4 C-3.03 4.495 -3.03 4.495 0 5 C0 3.35 0 1.7 0 0 Z " fill="#28818E" transform="translate(264,331)"/>
<path d="M0 0 C1.32 1.65 2.64 3.3 4 5 C3.67 5.66 3.34 6.32 3 7 C2.84932786 8.4465242 2.75138964 9.8987934 2.68359375 11.3515625 C2.64169922 12.20234375 2.59980469 13.053125 2.55664062 13.9296875 C2.51732422 14.81914062 2.47800781 15.70859375 2.4375 16.625 C2.39431641 17.5221875 2.35113281 18.419375 2.30664062 19.34375 C2.20043139 21.56234283 2.09838806 23.7810488 2 26 C1.01 26.33 0.02 26.66 -1 27 C-1.11157151 17.92551747 -0.94242818 9.03721311 0 0 Z " fill="#277080" transform="translate(256,248)"/>
<path d="M0 0 C0.33 0 0.66 0 1 0 C1.28435784 10.85299084 0.47317858 21.25368837 -1 32 C-1.33 32 -1.66 32 -2 32 C-2 30.35 -2 28.7 -2 27 C-2.99 27 -3.98 27 -5 27 C-5 25.02 -5 23.04 -5 21 C-4.01 20.67 -3.02 20.34 -2 20 C-1.97494385 19.42967041 -1.9498877 18.85934082 -1.92407227 18.27172852 C-1.80843451 15.70173843 -1.68556376 13.13214473 -1.5625 10.5625 C-1.52318359 9.66466797 -1.48386719 8.76683594 -1.44335938 7.84179688 C-1.40146484 6.98779297 -1.35957031 6.13378906 -1.31640625 5.25390625 C-1.27974854 4.46314697 -1.24309082 3.6723877 -1.20532227 2.85766602 C-1 1 -1 1 0 0 Z " fill="#1E5460" transform="translate(259,254)"/>
<path d="M0 0 C1.17046875 0.03609375 2.3409375 0.0721875 3.546875 0.109375 C4.43890625 0.15578125 5.3309375 0.2021875 6.25 0.25 C2.86831569 3.93006822 -0.17521756 6.2285845 -4.75 8.25 C-4.75 7.26 -4.75 6.27 -4.75 5.25 C-7.72 4.755 -7.72 4.755 -10.75 4.25 C-7.43152371 0.07726249 -5.22729025 -0.20909161 0 0 Z " fill="#4C7E91" transform="translate(257.75,147.75)"/>
<path d="M0 0 C0.98484375 0.11085938 1.9696875 0.22171875 2.984375 0.3359375 C3.73203125 0.43132812 4.4796875 0.52671875 5.25 0.625 C-0.84300258 5.70250215 -3.90925337 6.88635822 -11.75 6.625 C-10.28855569 1.99709302 -10.28855569 1.99709302 -8.03125 0.4375 C-5.13115586 -0.59541024 -3.04492941 -0.3624916 0 0 Z " fill="#2FA1B5" transform="translate(262.75,308.375)"/>
<path d="M0 0 C0.66 0 1.32 0 2 0 C3.09857724 6.1676029 3.11539104 12.18415123 3.0625 18.4375 C3.05798828 19.45521484 3.05347656 20.47292969 3.04882812 21.52148438 C3.03712437 24.01438509 3.02072848 26.50716074 3 29 C2.67 29 2.34 29 2 29 C2 22.07 2 15.14 2 8 C1.01 8.495 1.01 8.495 0 9 C-0.31241371 11.54941373 -0.51303421 14.00361513 -0.625 16.5625 C-0.66367187 17.27341797 -0.70234375 17.98433594 -0.7421875 18.71679688 C-0.83671783 20.47742425 -0.91945817 22.23867728 -1 24 C-1.33 24 -1.66 24 -2 24 C-2.05787784 20.37506666 -2.0935542 16.75025143 -2.125 13.125 C-2.14175781 12.09246094 -2.15851563 11.05992187 -2.17578125 9.99609375 C-2.18222656 9.00996094 -2.18867188 8.02382812 -2.1953125 7.0078125 C-2.20578613 6.09660645 -2.21625977 5.18540039 -2.22705078 4.24658203 C-2 2 -2 2 0 0 Z " fill="#397787" transform="translate(337,227)"/>
<path d="M0 0 C0.89203125 0.00902344 1.7840625 0.01804687 2.703125 0.02734375 C3.37859375 0.03894531 4.0540625 0.05054688 4.75 0.0625 C-0.71341463 5.91615854 -0.71341463 5.91615854 -5.28125 6.1796875 C-7.27120443 6.18669438 -9.26113785 6.1287954 -11.25 6.0625 C-10.5 3.625 -10.5 3.625 -9.25 1.0625 C-6.19059048 -0.08477857 -3.23858314 -0.04261294 0 0 Z " fill="#287785" transform="translate(258.25,303.9375)"/>
<path d="M0 0 C1.17046875 0.03609375 2.3409375 0.0721875 3.546875 0.109375 C4.43890625 0.15578125 5.3309375 0.2021875 6.25 0.25 C3.70831249 2.82359154 1.26881396 5.23745736 -1.75 7.25 C-2.41 7.25 -3.07 7.25 -3.75 7.25 C-3.75 6.59 -3.75 5.93 -3.75 5.25 C-6.06 4.92 -8.37 4.59 -10.75 4.25 C-7.43152371 0.07726249 -5.22729025 -0.20909161 0 0 Z " fill="#4C8291" transform="translate(246.75,208.75)"/>
<path d="M0 0 C0.66 0 1.32 0 2 0 C2.33 8.58 2.66 17.16 3 26 C0.69 26 -1.62 26 -4 26 C-4.33 25.34 -4.66 24.68 -5 24 C-3.35 24 -1.7 24 0 24 C0 16.08 0 8.16 0 0 Z " fill="#257884" transform="translate(318,331)"/>
<path d="M0 0 C0.66 0 1.32 0 2 0 C2 8.58 2 17.16 2 26 C0.02 26 -1.96 26 -4 26 C-4.33 25.34 -4.66 24.68 -5 24 C-3.35 24 -1.7 24 0 24 C0 16.08 0 8.16 0 0 Z " fill="#26808C" transform="translate(272,331)"/>
<path d="M0 0 C0 13.86 0 27.72 0 42 C-0.33 42 -0.66 42 -1 42 C-1 29.46 -1 16.92 -1 4 C-3.31 4 -5.62 4 -8 4 C-6.27302455 0.54604909 -3.70696841 0 0 0 Z " fill="#5CD6FE" transform="translate(186,150)"/>
<path d="M0 0 C1.4606285 2.64738916 2 3.89448334 2 7 C2.99 6.67 3.98 6.34 5 6 C5.32613281 6.80824219 5.65226562 7.61648437 5.98828125 8.44921875 C6.42527344 9.51785156 6.86226563 10.58648437 7.3125 11.6875 C7.74175781 12.74324219 8.17101562 13.79898438 8.61328125 14.88671875 C9.9032962 18.00585033 9.9032962 18.00585033 11.73046875 20.64453125 C13 23 13 23 12 27 C9.03 21.06 6.06 15.12 3 9 C2.01 9.495 2.01 9.495 1 10 C-0.625 7.25 -0.625 7.25 -2 4 C-1.1875 1.625 -1.1875 1.625 0 0 Z " fill="#2B95AF" transform="translate(262,226)"/>
<path d="M0 0 C0.33 0 0.66 0 1 0 C1 1.65 1 3.3 1 5 C0.31292969 4.89300781 -0.37414062 4.78601563 -1.08203125 4.67578125 C-1.98308594 4.55589844 -2.88414062 4.43601562 -3.8125 4.3125 C-4.70582031 4.18488281 -5.59914062 4.05726563 -6.51953125 3.92578125 C-9.02396664 3.77326655 -9.02396664 3.77326655 -10.78125 5.25 C-12.66793618 7.95908785 -12.69565815 10.77397641 -13 14 C-15 12 -15 12 -15.375 8.625 C-15 5 -15 5 -13.4375 2.5625 C-10.15330241 0.45724514 -7.83432478 0.72114002 -4 1 C-3.01 1 -2.02 1 -1 1 C-0.67 0.67 -0.34 0.34 0 0 Z " fill="#2F737D" transform="translate(182,334)"/>
<path d="M0 0 C1.81336895 3.6267379 2.26734695 4.95102067 2.4140625 8.765625 C2.45273438 9.65507812 2.49140625 10.54453125 2.53125 11.4609375 C2.5621875 12.38132812 2.593125 13.30171875 2.625 14.25 C2.66367188 15.18585938 2.70234375 16.12171875 2.7421875 17.0859375 C2.83624844 19.39043054 2.92189399 21.69492013 3 24 C0.69 24 -1.62 24 -4 24 C-4.33 23.34 -4.66 22.68 -5 22 C-3.35 22 -1.7 22 0 22 C0 14.74 0 7.48 0 0 Z " fill="#267B87" transform="translate(244,333)"/>
<path d="M0 0 C1.43903046 0.62146808 2.87616793 1.24732059 4.3125 1.875 C5.51326172 2.39707031 5.51326172 2.39707031 6.73828125 2.9296875 C9 4 9 4 12 6 C11.67 6.99 11.34 7.98 11 9 C9.02 9 7.04 9 5 9 C4.34 7.68 3.68 6.36 3 5 C2.01 5 1.02 5 0 5 C0 3.35 0 1.7 0 0 Z " fill="#49D5E8" transform="translate(321,341)"/>
<path d="M0 0 C2.8125 0.4375 2.8125 0.4375 3.8125 1.4375 C3.85313832 3.10367115 3.855221 4.77138095 3.8125 6.4375 C0.8425 6.4375 -2.1275 6.4375 -5.1875 6.4375 C-5.5175 7.4275 -5.8475 8.4175 -6.1875 9.4375 C-7.1875 6.4375 -7.1875 6.4375 -5.625 3.25 C-3.1875 0.4375 -3.1875 0.4375 0 0 Z " fill="#EFF7F8" transform="translate(216.1875,338.5625)"/>
<path d="M0 0 C0.33 0 0.66 0 1 0 C1.08096803 1.45742463 1.13917774 2.91612807 1.1875 4.375 C1.22230469 5.18710937 1.25710937 5.99921875 1.29296875 6.8359375 C1.19628906 7.55007813 1.09960938 8.26421875 1 9 C0.01 9.66 -0.98 10.32 -2 11 C-1.5359375 12.36125 -1.5359375 12.36125 -1.0625 13.75 C-0.2727737 16.16563338 0.42949297 18.52780285 1 21 C-1.31 21 -3.62 21 -6 21 C-6.33 20.34 -6.66 19.68 -7 19 C-5.35 18.67 -3.7 18.34 -2 18 C-2.99 15.03 -3.98 12.06 -5 9 C-4.360625 8.443125 -3.72125 7.88625 -3.0625 7.3125 C-0.80319013 4.77933439 -0.36850953 3.31658576 0 0 Z " fill="#31828D" transform="translate(202,336)"/>
<path d="M0 0 C0.66 0.33 1.32 0.66 2 1 C2.60044272 7.24460432 2.60044272 7.24460432 0.0625 10.4375 C-3.95198244 12.48570533 -7.55892297 12.75035879 -12 12 C-12.66 11.34 -13.32 10.68 -14 10 C-13.39671875 9.96261719 -12.7934375 9.92523438 -12.171875 9.88671875 C-8.65728122 9.59761507 -5.70651605 9.33559512 -2.5 7.8125 C-0.45061027 5.33615408 -0.2800342 3.15038474 0 0 Z " fill="#2F838F" transform="translate(339,345)"/>
<path d="M0 0 C2.48046875 -0.48828125 2.48046875 -0.48828125 5.1875 -0.3125 C6.08855469 -0.26738281 6.98960937 -0.22226562 7.91796875 -0.17578125 C8.94857422 -0.08876953 8.94857422 -0.08876953 10 0 C9.67 1.32 9.34 2.64 9 4 C3.06 4.495 3.06 4.495 -3 5 C-2.01 3.35 -1.02 1.7 0 0 Z " fill="#4A9BAA" transform="translate(189,281)"/>
<path d="M0 0 C0.33 0.66 0.66 1.32 1 2 C-0.2065625 2.433125 -0.2065625 2.433125 -1.4375 2.875 C-4.1326468 3.73262568 -4.1326468 3.73262568 -5 6 C-5.06950541 7.54023996 -5.08452357 9.08334988 -5.0625 10.625 C-5.05347656 11.44226563 -5.04445313 12.25953125 -5.03515625 13.1015625 C-5.02355469 13.72804688 -5.01195312 14.35453125 -5 15 C-7.01270624 13.33871866 -7.91655268 12.45159728 -8.3984375 9.84375 C-8.39070313 9.0703125 -8.38296875 8.296875 -8.375 7.5 C-8.38273437 6.7265625 -8.39046875 5.953125 -8.3984375 5.15625 C-7.48984479 0.23916005 -4.54049396 -0.36814816 0 0 Z " fill="#2E7F8B" transform="translate(288,335)"/>
<path d="M0 0 C0.66 0 1.32 0 2 0 C2.1875 2.375 2.1875 2.375 2 5 C-1.21830065 7.14553377 -2.26786507 7.29583868 -6 7.3125 C-7.299375 7.33763672 -7.299375 7.33763672 -8.625 7.36328125 C-11.4116129 6.93703947 -12.26608617 6.16168863 -14 4 C-12.84371094 4.01740234 -12.84371094 4.01740234 -11.6640625 4.03515625 C-10.15972656 4.04869141 -10.15972656 4.04869141 -8.625 4.0625 C-7.12839844 4.07990234 -7.12839844 4.07990234 -5.6015625 4.09765625 C-3.01567547 4.18006602 -3.01567547 4.18006602 -1 3 C-0.67 2.01 -0.34 1.02 0 0 Z " fill="#378A95" transform="translate(224,350)"/>
<path d="M0 0 C1.98 0 3.96 0 6 0 C6.38218767 1.65614657 6.71395102 3.32457024 7 5 C6 6 6 6 2.9375 6.0625 C1.4834375 6.0315625 1.4834375 6.0315625 0 6 C0 4.02 0 2.04 0 0 Z " fill="#46B0C0" transform="translate(189,335)"/>
<path d="M0 0 C0.66 0.66 1.32 1.32 2 2 C0.39125 2.0928125 0.39125 2.0928125 -1.25 2.1875 C-5.69698802 3.15101407 -6.55905511 4.29337998 -9 8 C-9.66 8.66 -10.32 9.32 -11 10 C-11.31785906 6.50355037 -11.39644605 4.602598 -9.4375 1.625 C-6.13230302 -0.57846465 -3.89201406 -0.43244601 0 0 Z " fill="#3A848E" transform="translate(220,335)"/>
<path d="M0 0 C1.98 0 3.96 0 6 0 C6 2.31 6 4.62 6 7 C4.35 6.67 2.7 6.34 1 6 C0.67 4.02 0.34 2.04 0 0 Z " fill="#47E6FA" transform="translate(232,348)"/>
<path d="M0 0 C0.66 0 1.32 0 2 0 C2 1.98 2 3.96 2 6 C0.39125 5.938125 0.39125 5.938125 -1.25 5.875 C-4.65747485 5.9885825 -6.20739631 6.21273364 -9 8 C-9 6.68 -9 5.36 -9 4 C-2.25 2.875 -2.25 2.875 0 4 C0 2.68 0 1.36 0 0 Z " fill="#408E9A" transform="translate(220,341)"/>
<path d="M0 0 C1.32 0 2.64 0 4 0 C5.25 7.625 5.25 7.625 3 11 C3 9.68 3 8.36 3 7 C2.01 7 1.02 7 0 7 C0 4.69 0 2.38 0 0 Z " fill="#2B646F" transform="translate(253,281)"/>
<path d="M0 0 C0.33 0 0.66 0 1 0 C1 1.98 1 3.96 1 6 C-1.47775095 7.23887548 -3.23653707 7.16741669 -6 7.1875 C-7.3303125 7.20876953 -7.3303125 7.20876953 -8.6875 7.23046875 C-11 7 -11 7 -13 5 C-11.95199219 4.90912109 -11.95199219 4.90912109 -10.8828125 4.81640625 C-9.97273437 4.73261719 -9.06265625 4.64882813 -8.125 4.5625 C-7.22007812 4.48128906 -6.31515625 4.40007812 -5.3828125 4.31640625 C-2.98889139 4.13010715 -2.98889139 4.13010715 -1 3 C-0.67 2.01 -0.34 1.02 0 0 Z " fill="#30848E" transform="translate(182,350)"/>
<path d="M0 0 C2.97 0 5.94 0 9 0 C6.16569547 3.2542015 4.31392226 4.5206753 0 5 C0 3.35 0 1.7 0 0 Z " fill="#1B5E6A" transform="translate(254,304)"/>
<path d="M0 0 C0 1.65 0 3.3 0 5 C-4.29 5 -8.58 5 -13 5 C-10.24209864 3.62104932 -7.67820126 2.43955694 -4.8125 1.375 C-3.77029297 0.98441406 -3.77029297 0.98441406 -2.70703125 0.5859375 C-1 0 -1 0 0 0 Z " fill="#55A0AF" transform="translate(248,275)"/>
<path d="M0 0 C0.33 0 0.66 0 1 0 C1 1.65 1 3.3 1 5 C4.465 4.505 4.465 4.505 8 4 C3.375 8.875 3.375 8.875 0 10 C0 6.7 0 3.4 0 0 Z " fill="#43BCD6" transform="translate(263,274)"/>
<path d="M0 0 C-0.59646305 3.34019306 -1.68294159 5.50470633 -4 8 C-4.99 8 -5.98 8 -7 8 C-4.18918919 0 -4.18918919 0 0 0 Z " fill="#3A8A95" transform="translate(238,335)"/>
<path d="M0 0 C0.33 0 0.66 0 1 0 C1 1.65 1 3.3 1 5 C-0.01320312 4.83951172 -0.01320312 4.83951172 -1.046875 4.67578125 C-1.93890625 4.55589844 -2.8309375 4.43601562 -3.75 4.3125 C-4.63171875 4.18488281 -5.5134375 4.05726563 -6.421875 3.92578125 C-9.55676517 4.01602809 -10.71823587 4.92615363 -13 7 C-12.4375 5.125 -12.4375 5.125 -11 3 C-7.52414506 1.73605275 -4.70098076 1 -1 1 C-0.67 0.67 -0.34 0.34 0 0 Z " fill="#3996A4" transform="translate(182,334)"/>
<path d="M0 0 C2.475 0.495 2.475 0.495 5 1 C4.67 2.65 4.34 4.3 4 6 C2.68 6.33 1.36 6.66 0 7 C0 4.69 0 2.38 0 0 Z " fill="#2F7C8C" transform="translate(258,279)"/>
<path d="M0 0 C0.99 0 1.98 0 3 0 C3 2.31 3 4.62 3 7 C1.68 7 0.36 7 -1 7 C-1.04254356 5.00045254 -1.04080783 2.99958364 -1 1 C-0.67 0.67 -0.34 0.34 0 0 Z " fill="#2F8DA1" transform="translate(260,273)"/>
<path d="M0 0 C0 1.32 0 2.64 0 4 C0.66 4.33 1.32 4.66 2 5 C-0.64 5 -3.28 5 -6 5 C-5.6875 3.0625 -5.6875 3.0625 -5 1 C-2 0 -2 0 0 0 Z " fill="#227381" transform="translate(335,305)"/>
<path d="M0 0 C0 0.66 0 1.32 0 2 C-1.65 2.33 -3.3 2.66 -5 3 C-5 5.97 -5 8.94 -5 12 C-5.33 12 -5.66 12 -6 12 C-6.33 8.37 -6.66 4.74 -7 1 C-4.53721199 -0.231394 -2.7204945 -0.07159196 0 0 Z " fill="#41B1C1" transform="translate(252,335)"/>
<path d="M0 0 C1.40182371 2.61673759 2.60495559 5.0371669 3 8 C2.34 8.66 1.68 9.32 1 10 C-0.625 7.25 -0.625 7.25 -2 4 C-1.1875 1.625 -1.1875 1.625 0 0 Z " fill="#347F93" transform="translate(262,226)"/>
<path d="M0 0 C0 1.32 0 2.64 0 4 C-2.64 4 -5.28 4 -8 4 C-6.27302455 0.54604909 -3.70696841 0 0 0 Z " fill="#4DA0BE" transform="translate(186,150)"/>
<path d="M0 0 C0.66 0.33 1.32 0.66 2 1 C2 2.98 2 4.96 2 7 C-0.31 6.67 -2.62 6.34 -5 6 C-4.01 5.34 -3.02 4.68 -2 4 C-1.34 4.33 -0.68 4.66 0 5 C0 3.35 0 1.7 0 0 Z " fill="#338693" transform="translate(264,331)"/>
<path d="M0 0 C1.98 0 3.96 0 6 0 C6 0.66 6 1.32 6 2 C4.68 2 3.36 2 2 2 C1.67 3.32 1.34 4.64 1 6 C0.67 4.02 0.34 2.04 0 0 Z " fill="#328F9C" transform="translate(232,348)"/>
<path d="M0 0 C1.20628008 2.33214148 2.1654738 4.49642139 3 7 C2.01 7.66 1.02 8.32 0 9 C-0.87890625 2.84765625 -0.87890625 2.84765625 -1 1 C-0.67 0.67 -0.34 0.34 0 0 Z " fill="#277684" transform="translate(289,301)"/>
<path d="M0 0 C2.31 0.33 4.62 0.66 7 1 C7 1.33 7 1.66 7 2 C5.02 2 3.04 2 1 2 C1 2.66 1 3.32 1 4 C0.34 4 -0.32 4 -1 4 C-0.67 2.68 -0.34 1.36 0 0 Z " fill="#43858F" transform="translate(328,335)"/>
<path d="M0 0 C0.99 0.33 1.98 0.66 3 1 C4.1875 3.5625 4.1875 3.5625 5 6 C4.34 6.66 3.68 7.32 3 8 C0 2.25 0 2.25 0 0 Z " fill="#306571" transform="translate(275,257)"/>
</svg>
